<svg width="241" height="83" viewBox="0 0 241 83" fill="none" xmlns="http://www.w3.org/2000/svg">
<path d="M130.676 69.0932C127.946 66.7435 125.31 64.2349 122.77 61.5676C120.293 58.8368 117.975 56.0425 115.816 53.1847C113.72 50.3269 111.783 47.4373 110.005 44.516C108.29 41.5311 106.829 38.6098 105.623 35.752C103.464 38.1018 101.304 40.4833 99.1451 42.8965C97.0493 45.2463 95.1759 47.6278 93.5247 50.0411C91.8735 52.3909 90.5399 54.7724 89.5237 57.1856C88.4441 59.5354 87.9043 61.8852 87.9043 64.2349C87.9043 67.0292 88.3806 69.4425 89.3332 71.4747C90.2223 73.4435 91.429 75.0629 92.9531 76.333C94.4773 77.6032 96.2237 78.524 98.1925 79.0956C100.161 79.6672 102.193 79.9529 104.289 79.9529C108.481 79.9529 112.926 78.9686 117.626 76.9999C122.325 75.0311 126.675 72.3956 130.676 69.0932ZM118.864 12.6036C118.864 10.3809 118.356 8.79321 117.34 7.84061C116.387 6.8245 115.339 6.31644 114.196 6.31644C113.244 6.31644 112.228 6.63397 111.148 7.26905C110.132 7.90412 109.179 8.82497 108.29 10.0316C107.465 11.1747 106.766 12.5719 106.194 14.2231C105.623 15.8743 105.337 17.6842 105.337 19.6529C105.337 23.2728 106.004 27.115 107.337 31.1795C108.925 29.5283 110.418 27.9089 111.815 26.3212C113.212 24.7335 114.419 23.1776 115.435 21.6534C116.514 20.0657 117.34 18.5416 117.911 17.0809C118.547 15.5567 118.864 14.0643 118.864 12.6036ZM155.539 82.1439C155.539 82.3345 155.412 82.525 155.158 82.7155C154.904 82.906 154.523 83.0013 154.015 83.0013C150.205 81.7947 146.458 80.1117 142.774 77.9525C139.091 75.7297 135.503 73.1577 132.01 70.2364C129.597 72.0781 127.088 73.761 124.484 75.2852C121.881 76.8093 119.213 78.1112 116.483 79.1909C113.815 80.2705 111.116 81.0961 108.385 81.6676C105.718 82.2392 103.146 82.525 100.669 82.525C98.256 82.525 95.9697 82.1757 93.8105 81.4771C91.6512 80.842 89.7778 79.8577 88.1901 78.524C86.6024 77.1269 85.364 75.4122 84.4749 73.38C83.5223 71.3477 83.046 68.9662 83.046 66.2354C83.046 63.3141 83.7128 60.4563 85.0465 57.6619C86.3801 54.8041 88.0948 52.0098 90.1906 49.279C92.2863 46.5482 94.6043 43.8809 97.1446 41.2771C99.7484 38.6733 102.289 36.133 104.765 33.6563C102.924 28.7027 102.003 24.2254 102.003 20.2245C102.003 17.8747 102.416 15.7155 103.241 13.7468C104.13 11.778 105.242 10.0951 106.575 8.69795C107.909 7.3008 109.37 6.22118 110.957 5.45909C112.609 4.6335 114.165 4.2207 115.625 4.2207C117.34 4.2207 118.896 4.79227 120.293 5.9354C121.69 7.01501 122.389 8.82497 122.389 11.3653C122.389 12.9529 121.976 14.6041 121.15 16.3188C120.388 18.0335 119.34 19.8117 118.007 21.6534C116.737 23.4316 115.212 25.3051 113.434 27.2738C111.719 29.179 109.91 31.1477 108.004 33.1799C110.1 38.9591 113.212 44.8335 117.34 50.8032C121.531 56.7093 126.612 62.2345 132.582 67.3785C135.82 64.4572 138.424 61.2501 140.393 57.7572C142.362 54.2643 143.346 50.6127 143.346 46.8022C143.346 45.5321 143.156 44.2619 142.774 42.9918C142.457 41.6582 141.79 40.261 140.774 38.8003C140.774 38.6733 140.965 38.5463 141.346 38.4193C141.727 38.2288 142.076 38.1335 142.393 38.1335C143.283 38.1335 143.981 38.451 144.489 39.0861C145.061 39.6577 145.474 40.3563 145.728 41.1818C146.045 42.0074 146.236 42.8648 146.299 43.7539C146.426 44.5795 146.49 45.2463 146.49 45.7544C146.49 49.9458 145.315 54.0103 142.965 57.9477C140.679 61.8217 137.694 65.3781 134.01 68.6169C140.171 73.888 147.125 78.1747 154.873 81.4771C155.317 81.7311 155.539 81.9534 155.539 82.1439Z" fill="#D0D0D0"/>
<path d="M18.224 49.704C18.224 47.72 18.096 46.072 17.84 44.76C17.616 43.448 17.296 42.792 16.88 42.792C16.624 42.792 16.384 42.984 16.16 43.368C15.936 43.72 15.744 44.232 15.584 44.904C15.456 45.544 15.344 46.312 15.248 47.208C15.184 48.072 15.152 49.016 15.152 50.04C15.152 51.864 15.28 53.832 15.536 55.944C15.792 58.024 16.24 60.04 16.88 61.992C17.328 59.944 17.664 57.848 17.888 55.704C18.112 53.528 18.224 51.528 18.224 49.704ZM38.336 27.912C38.336 28.072 38.272 28.2 38.144 28.296C38.016 28.392 37.856 28.504 37.664 28.632C36.704 29.208 35.92 30.008 35.312 31.032C34.704 32.056 34.208 33.176 33.824 34.392C33.472 35.608 33.232 36.856 33.104 38.136C32.976 39.384 32.912 40.536 32.912 41.592C32.912 42.328 32.944 43.24 33.008 44.328C33.104 45.384 33.2 46.552 33.296 47.832C33.424 49.112 33.52 50.472 33.584 51.912C33.68 53.32 33.728 54.76 33.728 56.232C33.728 58.312 33.6 60.328 33.344 62.28C33.12 64.232 32.656 65.976 31.952 67.512C31.28 69.048 30.336 70.28 29.12 71.208C27.904 72.136 26.32 72.6 24.368 72.6C23.472 72.6 22.624 72.424 21.824 72.072C21.056 71.752 20.336 71.288 19.664 70.68C19.024 70.072 18.432 69.368 17.888 68.568C17.376 67.768 16.912 66.888 16.496 65.928C16.08 67.048 15.584 68.088 15.008 69.048C14.464 70.008 13.856 70.84 13.184 71.544C12.512 72.248 11.776 72.792 10.976 73.176C10.176 73.56 9.328 73.752 8.432 73.752C7.056 73.752 5.888 73.4 4.928 72.696C4 71.992 3.232 71.064 2.624 69.912C2.016 68.792 1.536 67.512 1.184 66.072C0.864 64.6 0.624 63.112 0.464 61.608C0.304 60.072 0.192 58.584 0.128 57.144C0.096 55.672 0.064 54.376 0.032 53.256C-0.032 51.24 0 49.336 0.128 47.544C0.288 45.72 0.464 44.088 0.656 42.648C0.848 41.176 1.04 39.912 1.232 38.856C1.424 37.8 1.552 37.016 1.616 36.504C1.648 36.312 1.84 36.184 2.192 36.12C2.576 36.056 2.912 36.024 3.2 36.024C3.424 36.024 3.616 36.056 3.776 36.12C3.936 36.152 4.016 36.248 4.016 36.408C4.016 36.6 3.936 36.936 3.776 37.416C3.616 37.864 3.376 38.728 3.056 40.008C2.928 40.584 2.784 41.416 2.624 42.504C2.496 43.56 2.368 44.76 2.24 46.104C2.144 47.448 2.064 48.888 2 50.424C1.936 51.928 1.904 53.4 1.904 54.84C1.904 55.96 1.952 57.192 2.048 58.536C2.144 59.848 2.304 61.16 2.528 62.472C2.752 63.752 3.056 65 3.44 66.216C3.824 67.432 4.288 68.504 4.832 69.432C5.408 70.36 6.08 71.096 6.848 71.64C7.616 72.216 8.512 72.504 9.536 72.504C10.304 72.504 11.008 72.312 11.648 71.928C12.288 71.544 12.88 71 13.424 70.296C13.968 69.624 14.448 68.824 14.864 67.896C15.312 66.968 15.712 65.96 16.064 64.872C15.328 62.856 14.784 60.712 14.432 58.44C14.08 56.168 13.904 54.072 13.904 52.152C13.904 50.744 13.952 49.352 14.048 47.976C14.176 46.6 14.352 45.368 14.576 44.28C14.8 43.192 15.088 42.312 15.44 41.64C15.792 40.968 16.208 40.632 16.688 40.632C17.072 40.632 17.408 40.872 17.696 41.352C18.016 41.832 18.272 42.488 18.464 43.32C18.688 44.152 18.848 45.144 18.944 46.296C19.072 47.416 19.136 48.632 19.136 49.944C19.136 52.056 18.992 54.28 18.704 56.616C18.416 58.92 17.968 61.176 17.36 63.384C17.776 64.504 18.256 65.544 18.8 66.504C19.344 67.432 19.952 68.248 20.624 68.952C21.328 69.656 22.096 70.2 22.928 70.584C23.792 71 24.736 71.208 25.76 71.208C27.168 71.208 28.32 70.856 29.216 70.152C30.112 69.48 30.816 68.552 31.328 67.368C31.84 66.152 32.192 64.76 32.384 63.192C32.576 61.592 32.672 59.88 32.672 58.056C32.672 56.424 32.608 54.744 32.48 53.016C32.384 51.288 32.272 49.576 32.144 47.88C32.016 46.152 31.888 44.488 31.76 42.888C31.664 41.256 31.616 39.752 31.616 38.376C31.616 37.384 31.76 36.232 32.048 34.92C32.368 33.608 32.784 32.376 33.296 31.224C33.84 30.04 34.448 29.048 35.12 28.248C35.824 27.416 36.56 27 37.328 27C37.552 27 37.776 27.112 38 27.336C38.224 27.528 38.336 27.72 38.336 27.912Z" fill="#1F1711"/>
<path d="M53.3236 59.784C53.3236 59.304 53.2436 58.92 53.0836 58.632C52.9236 58.312 52.6676 58.152 52.3156 58.152C51.7716 58.152 51.3556 58.424 51.0676 58.968C50.7796 59.48 50.6516 60.136 50.6836 60.936C50.7796 62.632 51.0836 64.056 51.5956 65.208C52.1396 64.472 52.5556 63.64 52.8436 62.712C53.1636 61.784 53.3236 60.808 53.3236 59.784ZM66.2836 59.736C66.0596 60.216 65.8196 60.712 65.5636 61.224C65.3076 61.704 65.0196 62.184 64.6996 62.664C63.0676 65.096 61.4196 66.904 59.7556 68.088C58.0916 69.272 56.5396 69.864 55.0996 69.864C53.2756 69.864 51.8836 69 50.9236 67.272C49.8036 68.392 48.5396 69.24 47.1316 69.816C45.7556 70.392 44.3956 70.68 43.0516 70.68C42.2516 70.68 41.4836 70.568 40.7476 70.344C40.0436 70.12 39.4356 69.784 38.9236 69.336C38.3796 68.856 37.9476 68.264 37.6276 67.56C37.3076 66.824 37.1476 65.976 37.1476 65.016C37.1476 63.864 37.4196 62.696 37.9636 61.512C38.4756 60.296 39.1956 59.208 40.1236 58.248C41.0836 57.256 42.2036 56.44 43.4836 55.8C44.7636 55.16 46.1556 54.84 47.6596 54.84C48.8756 54.84 49.8196 55.016 50.4916 55.368C51.1636 55.688 51.4996 55.992 51.4996 56.28C51.4996 56.408 51.4356 56.504 51.3076 56.568C51.1796 56.632 51.0676 56.664 50.9716 56.664C50.9396 56.632 50.9076 56.616 50.8756 56.616H50.8276C50.4436 56.264 50.0116 55.992 49.5316 55.8C49.0516 55.576 48.3476 55.464 47.4196 55.464C46.1716 55.464 45.0356 55.736 44.0116 56.28C43.0196 56.792 42.1716 57.48 41.4676 58.344C40.7636 59.176 40.2196 60.104 39.8356 61.128C39.4516 62.152 39.2596 63.16 39.2596 64.152C39.2596 66.072 39.7076 67.464 40.6036 68.328C41.4996 69.192 42.6196 69.624 43.9636 69.624C45.0516 69.624 46.1876 69.352 47.3716 68.808C48.5556 68.264 49.6116 67.496 50.5396 66.504C50.0276 65.352 49.7716 63.848 49.7716 61.992C49.7716 60.776 49.9956 59.72 50.4436 58.824C50.8916 57.928 51.5316 57.48 52.3636 57.48C53.5156 57.48 54.0916 58.152 54.0916 59.496C54.0916 60.84 53.8996 62.056 53.5156 63.144C53.1316 64.2 52.6196 65.16 51.9796 66.024C52.8756 67.688 54.1236 68.52 55.7236 68.52C56.9396 68.52 58.2356 68.008 59.6116 66.984C61.0196 65.96 62.3956 64.472 63.7396 62.52C64.0596 62.04 64.3476 61.544 64.6036 61.032C64.8596 60.52 65.1156 60.008 65.3716 59.496L66.2836 59.736Z" fill="#1F1711"/>
<path d="M72.9508 38.28C72.9508 36.456 72.6467 35 72.0387 33.912C71.4627 32.792 70.4867 32.232 69.1107 32.232C68.6307 32.232 68.1827 32.392 67.7667 32.712C67.3827 33 67.0468 33.4 66.7588 33.912C66.4708 34.424 66.2467 35.016 66.0867 35.688C65.9267 36.36 65.8467 37.08 65.8467 37.848C65.8467 39.96 65.8628 41.88 65.8948 43.608C65.9268 45.336 65.9588 46.968 65.9908 48.504C66.0548 50.04 66.1187 51.528 66.1827 52.968C66.2467 54.408 66.3107 55.88 66.3747 57.384C67.3027 56.136 68.1668 54.712 68.9668 53.112C69.7668 51.48 70.4548 49.816 71.0308 48.12C71.6388 46.392 72.1028 44.68 72.4228 42.984C72.7748 41.288 72.9508 39.72 72.9508 38.28ZM90.3268 59.736C90.1028 60.216 89.8628 60.712 89.6068 61.224C89.3828 61.736 89.0948 62.216 88.7428 62.664C86.9828 65.16 84.9828 67.128 82.7428 68.568C80.5028 69.976 78.2787 70.68 76.0707 70.68C74.6947 70.68 73.3828 70.36 72.1348 69.72C70.8868 69.112 69.7828 68.12 68.8228 66.744C68.6948 66.584 68.6308 66.44 68.6308 66.312C68.6308 66.024 68.8227 65.88 69.2067 65.88C69.2387 65.88 69.3507 65.912 69.5427 65.976C69.7987 65.976 70.0868 66.072 70.4068 66.264C70.7588 66.424 71.2548 66.504 71.8948 66.504C72.8868 66.504 73.8147 66.328 74.6787 65.976C75.5427 65.624 76.2787 65.176 76.8867 64.632C77.5267 64.056 78.0227 63.416 78.3747 62.712C78.7267 61.976 78.9027 61.224 78.9027 60.456C78.9027 59.496 78.6468 58.664 78.1348 57.96C77.6548 57.256 76.8227 56.904 75.6387 56.904C74.4227 56.904 73.3027 57.336 72.2787 58.2C71.2547 59.032 70.3268 60.056 69.4948 61.272C68.6948 62.456 68.0067 63.72 67.4307 65.064C66.8547 66.376 66.4228 67.528 66.1348 68.52C65.9748 69.064 65.8308 69.4 65.7028 69.528C65.5748 69.656 65.4308 69.72 65.2708 69.72C64.9188 69.72 64.7587 69.384 64.7907 68.712C64.7907 68.424 64.8068 68.072 64.8388 67.656C64.8708 67.24 64.9028 66.792 64.9348 66.312C64.9348 65.832 64.9507 65.352 64.9827 64.872C65.0147 64.36 65.0307 63.896 65.0307 63.48C65.0307 62.04 64.9988 60.392 64.9348 58.536C64.8708 56.648 64.7907 54.712 64.6947 52.728C64.5987 50.712 64.5188 48.712 64.4548 46.728C64.3908 44.744 64.3587 42.92 64.3587 41.256C64.3587 39.944 64.4548 38.68 64.6468 37.464C64.8388 36.216 65.1427 35.128 65.5587 34.2C65.9747 33.24 66.5028 32.488 67.1428 31.944C67.7828 31.368 68.5348 31.08 69.3988 31.08C70.2948 31.08 71.0467 31.24 71.6547 31.56C72.2947 31.848 72.8068 32.28 73.1908 32.856C73.5748 33.4 73.8468 34.072 74.0068 34.872C74.1988 35.64 74.2948 36.488 74.2948 37.416C74.2948 39.016 74.0707 40.776 73.6227 42.696C73.1747 44.584 72.5827 46.488 71.8467 48.408C71.1107 50.328 70.2627 52.184 69.3027 53.976C68.3747 55.736 67.4148 57.272 66.4228 58.584C66.4868 59.544 66.5188 60.536 66.5188 61.56C66.5508 62.584 66.5988 63.672 66.6628 64.824C67.4628 63.096 68.3427 61.608 69.3027 60.36C69.7187 59.816 70.1827 59.288 70.6947 58.776C71.2387 58.232 71.7987 57.752 72.3747 57.336C72.9827 56.92 73.6228 56.584 74.2948 56.328C74.9988 56.072 75.7348 55.944 76.5028 55.944C77.7188 55.944 78.7748 56.248 79.6708 56.856C80.5668 57.464 81.0147 58.44 81.0147 59.784C81.0147 61.064 80.6947 62.152 80.0547 63.048C79.4467 63.944 78.6787 64.696 77.7507 65.304C76.8227 65.88 75.8307 66.312 74.7747 66.6C73.7187 66.888 72.7588 67.064 71.8948 67.128C71.8308 67.128 71.7988 67.144 71.7988 67.176C71.7988 67.24 71.8467 67.336 71.9427 67.464C72.5827 68.2 73.3028 68.728 74.1028 69.048C74.9028 69.368 75.7347 69.528 76.5987 69.528C77.6547 69.528 78.7268 69.336 79.8148 68.952C80.9028 68.536 81.9428 68.008 82.9348 67.368C83.9268 66.696 84.8388 65.944 85.6708 65.112C86.5348 64.248 87.2388 63.384 87.7828 62.52C88.1028 62.04 88.3908 61.544 88.6468 61.032C88.9028 60.52 89.1587 60.008 89.4147 59.496L90.3268 59.736Z" fill="#1F1711"/>
<path d="M97.0936 56.76C97.0936 55.896 96.8696 55.192 96.4216 54.648C96.0056 54.072 95.3176 53.784 94.3576 53.784C93.8456 53.784 93.3816 53.944 92.9656 54.264C92.5496 54.584 92.1976 55.016 91.9096 55.56C91.6216 56.072 91.3976 56.68 91.2376 57.384C91.0776 58.088 90.9976 58.824 90.9976 59.592C90.9976 60.808 91.1256 61.896 91.3816 62.856C91.6696 63.784 92.0696 64.6 92.5816 65.304C93.2536 64.76 93.8616 64.136 94.4056 63.432C94.9496 62.728 95.4136 61.992 95.7976 61.224C96.2136 60.456 96.5336 59.688 96.7576 58.92C96.9816 58.152 97.0936 57.432 97.0936 56.76ZM109.238 59.736C109.014 60.216 108.774 60.712 108.518 61.224C108.294 61.704 108.006 62.184 107.654 62.664C106.086 64.904 104.294 66.6 102.278 67.752C100.294 68.872 98.3896 69.432 96.5656 69.432C95.5416 69.432 94.5816 69.256 93.6856 68.904C92.8216 68.552 92.0696 68.024 91.4296 67.32C90.7896 66.616 90.2776 65.736 89.8936 64.68C89.5096 63.624 89.3176 62.376 89.3176 60.936C89.3176 59.976 89.4616 59.016 89.7496 58.056C90.0376 57.096 90.4216 56.232 90.9016 55.464C91.4136 54.696 91.9896 54.072 92.6296 53.592C93.3016 53.112 94.0056 52.872 94.7416 52.872C95.9256 52.872 96.7896 53.224 97.3336 53.928C97.8776 54.6 98.1496 55.464 98.1496 56.52C98.1496 57.96 97.7016 59.528 96.8056 61.224C95.9416 62.888 94.6936 64.44 93.0616 65.88C94.2776 67.256 95.8456 67.944 97.7656 67.944C99.2056 67.944 100.71 67.512 102.278 66.648C103.846 65.752 105.318 64.376 106.694 62.52C107.046 62.072 107.334 61.592 107.558 61.08C107.814 60.536 108.07 60.008 108.326 59.496L109.238 59.736Z" fill="#1F1711"/>
<path d="M150.823 47.64C149.639 47.64 148.503 47.768 147.415 48.024C146.359 48.28 145.415 48.584 144.583 48.936C143.783 49.288 143.127 49.656 142.615 50.04C142.135 50.424 141.895 50.76 141.895 51.048C141.895 51.432 142.343 51.624 143.239 51.624C144.775 51.624 146.231 51.256 147.607 50.52C149.015 49.784 150.279 48.824 151.399 47.64H150.823ZM164.791 54.84C164.791 56.408 164.343 58.104 163.447 59.928C162.583 61.752 161.383 63.56 159.847 65.352C158.311 67.144 156.487 68.872 154.375 70.536C152.263 72.2 149.991 73.672 147.559 74.952C145.127 76.232 142.567 77.24 139.879 77.976C137.191 78.744 134.503 79.128 131.815 79.128C131.367 79.128 130.871 79.112 130.327 79.08C129.815 79.048 129.335 78.968 128.887 78.84C128.439 78.744 128.055 78.568 127.735 78.312C127.415 78.088 127.255 77.768 127.255 77.352C127.255 76.776 127.543 76.216 128.119 75.672C128.695 75.16 129.431 74.68 130.327 74.232C131.223 73.784 132.199 73.384 133.255 73.032C134.311 72.68 135.319 72.376 136.279 72.12C137.271 71.864 138.135 71.656 138.871 71.496C139.607 71.368 140.103 71.304 140.359 71.304C140.551 71.304 140.695 71.352 140.791 71.448C140.887 71.544 140.935 71.64 140.935 71.736C140.935 71.896 140.855 71.976 140.695 71.976H140.071C139.239 71.976 138.183 72.136 136.903 72.456C135.623 72.776 134.375 73.176 133.159 73.656C131.943 74.136 130.903 74.664 130.039 75.24C129.175 75.848 128.743 76.408 128.743 76.92C128.743 77.272 128.855 77.544 129.079 77.736C129.335 77.96 129.639 78.136 129.991 78.264C130.343 78.392 130.711 78.472 131.095 78.504C131.479 78.568 131.815 78.6 132.103 78.6C134.375 78.6 136.695 78.216 139.063 77.448C141.463 76.68 143.783 75.656 146.023 74.376C148.295 73.128 150.423 71.672 152.407 70.008C154.423 68.376 156.183 66.68 157.687 64.92C159.191 63.128 160.375 61.352 161.239 59.592C162.103 57.8 162.535 56.136 162.535 54.6C162.535 52.712 161.751 51.144 160.183 49.896C158.647 48.616 156.103 47.88 152.551 47.688C151.111 49.032 149.527 50.12 147.799 50.952C146.103 51.784 144.375 52.2 142.615 52.2C141.367 52.2 140.743 51.896 140.743 51.288C140.743 50.904 140.999 50.472 141.511 49.992C142.055 49.48 142.791 49 143.719 48.552C144.679 48.104 145.815 47.736 147.127 47.448C148.439 47.128 149.879 46.968 151.447 46.968H152.023C153.079 45.72 153.927 44.36 154.567 42.888C155.207 41.384 155.527 39.912 155.527 38.472C155.527 37.512 155.351 36.6 154.999 35.736C154.679 34.84 154.135 34.072 153.367 33.432C152.631 32.792 151.655 32.28 150.439 31.896C149.255 31.512 147.815 31.32 146.119 31.32C144.967 31.32 143.367 31.48 141.319 31.8C139.303 32.12 137.111 32.616 134.743 33.288C132.407 33.928 130.023 34.744 127.591 35.736C125.159 36.728 122.951 37.88 120.967 39.192C118.983 40.504 117.367 41.992 116.119 43.656C114.871 45.32 114.247 47.16 114.247 49.176C114.247 49.432 114.199 49.656 114.103 49.848C114.007 50.008 113.911 50.088 113.815 50.088C113.687 50.088 113.591 49.96 113.527 49.704C113.431 49.416 113.383 48.952 113.383 48.312C113.671 46.232 114.519 44.344 115.927 42.648C117.335 40.952 119.079 39.448 121.159 38.136C123.207 36.792 125.463 35.64 127.927 34.68C130.391 33.72 132.823 32.936 135.223 32.328C137.655 31.688 139.911 31.224 141.991 30.936C144.103 30.616 145.831 30.456 147.175 30.456C149.127 30.456 150.775 30.648 152.119 31.032C153.495 31.384 154.615 31.88 155.479 32.52C156.343 33.128 156.967 33.864 157.351 34.728C157.735 35.592 157.927 36.504 157.927 37.464C157.927 39.032 157.495 40.664 156.631 42.36C155.799 44.024 154.663 45.576 153.223 47.016C155.271 47.112 157.031 47.384 158.503 47.832C159.975 48.248 161.175 48.808 162.103 49.512C163.031 50.184 163.703 50.984 164.119 51.912C164.567 52.808 164.791 53.784 164.791 54.84ZM139.351 67.464C139.351 67.912 139.319 68.232 139.255 68.424C139.191 68.616 139.015 68.712 138.727 68.712C138.087 68.776 137.767 68.136 137.767 66.792C137.735 62.376 137.687 58.344 137.623 54.696C137.591 51.048 137.543 47.896 137.479 45.24C137.447 42.552 137.415 40.424 137.383 38.856C137.351 37.288 137.335 36.392 137.335 36.168C137.335 35.912 137.415 35.736 137.575 35.64C137.735 35.544 137.927 35.464 138.151 35.4C138.407 35.4 138.599 35.48 138.727 35.64C138.887 35.8 138.967 35.992 138.967 36.216C138.967 38.776 138.983 41.416 139.015 44.136C139.047 46.824 139.079 49.512 139.111 52.2C139.175 54.888 139.223 57.528 139.255 60.12C139.319 62.712 139.351 65.16 139.351 67.464Z" fill="#1F1711"/>
<path d="M183.449 59.784C183.449 59.304 183.369 58.92 183.209 58.632C183.049 58.312 182.793 58.152 182.441 58.152C181.897 58.152 181.481 58.424 181.193 58.968C180.905 59.48 180.777 60.136 180.809 60.936C180.905 62.632 181.209 64.056 181.721 65.208C182.265 64.472 182.681 63.64 182.969 62.712C183.289 61.784 183.449 60.808 183.449 59.784ZM196.409 59.736C196.185 60.216 195.945 60.712 195.689 61.224C195.433 61.704 195.145 62.184 194.825 62.664C193.193 65.096 191.545 66.904 189.881 68.088C188.217 69.272 186.665 69.864 185.225 69.864C183.401 69.864 182.009 69 181.049 67.272C179.929 68.392 178.665 69.24 177.257 69.816C175.881 70.392 174.521 70.68 173.177 70.68C172.377 70.68 171.609 70.568 170.873 70.344C170.169 70.12 169.561 69.784 169.049 69.336C168.505 68.856 168.073 68.264 167.753 67.56C167.433 66.824 167.273 65.976 167.273 65.016C167.273 63.864 167.545 62.696 168.089 61.512C168.601 60.296 169.321 59.208 170.249 58.248C171.209 57.256 172.329 56.44 173.609 55.8C174.889 55.16 176.281 54.84 177.785 54.84C179.001 54.84 179.945 55.016 180.617 55.368C181.289 55.688 181.625 55.992 181.625 56.28C181.625 56.408 181.561 56.504 181.433 56.568C181.305 56.632 181.193 56.664 181.097 56.664C181.065 56.632 181.033 56.616 181.001 56.616H180.953C180.569 56.264 180.137 55.992 179.657 55.8C179.177 55.576 178.473 55.464 177.545 55.464C176.297 55.464 175.161 55.736 174.137 56.28C173.145 56.792 172.297 57.48 171.593 58.344C170.889 59.176 170.345 60.104 169.961 61.128C169.577 62.152 169.385 63.16 169.385 64.152C169.385 66.072 169.833 67.464 170.729 68.328C171.625 69.192 172.745 69.624 174.089 69.624C175.177 69.624 176.313 69.352 177.497 68.808C178.681 68.264 179.737 67.496 180.665 66.504C180.153 65.352 179.897 63.848 179.897 61.992C179.897 60.776 180.121 59.72 180.569 58.824C181.017 57.928 181.657 57.48 182.489 57.48C183.641 57.48 184.217 58.152 184.217 59.496C184.217 60.84 184.025 62.056 183.641 63.144C183.257 64.2 182.745 65.16 182.105 66.024C183.001 67.688 184.249 68.52 185.849 68.52C187.065 68.52 188.361 68.008 189.737 66.984C191.145 65.96 192.521 64.472 193.865 62.52C194.185 62.04 194.473 61.544 194.729 61.032C194.985 60.52 195.241 60.008 195.497 59.496L196.409 59.736Z" fill="#1F1711"/>
<path d="M203.076 38.28C203.076 36.456 202.772 35 202.164 33.912C201.588 32.792 200.612 32.232 199.236 32.232C198.756 32.232 198.308 32.392 197.892 32.712C197.508 33 197.172 33.4 196.884 33.912C196.596 34.424 196.372 35.016 196.212 35.688C196.052 36.36 195.972 37.08 195.972 37.848C195.972 39.96 195.988 41.88 196.02 43.608C196.052 45.336 196.084 46.968 196.116 48.504C196.18 50.04 196.244 51.528 196.308 52.968C196.372 54.408 196.436 55.88 196.5 57.384C197.428 56.136 198.292 54.712 199.092 53.112C199.892 51.48 200.58 49.816 201.156 48.12C201.764 46.392 202.228 44.68 202.548 42.984C202.9 41.288 203.076 39.72 203.076 38.28ZM220.452 59.736C220.228 60.216 219.988 60.712 219.732 61.224C219.508 61.736 219.22 62.216 218.868 62.664C217.108 65.16 215.108 67.128 212.868 68.568C210.628 69.976 208.404 70.68 206.196 70.68C204.82 70.68 203.508 70.36 202.26 69.72C201.012 69.112 199.908 68.12 198.948 66.744C198.82 66.584 198.756 66.44 198.756 66.312C198.756 66.024 198.948 65.88 199.332 65.88C199.364 65.88 199.476 65.912 199.668 65.976C199.924 65.976 200.212 66.072 200.532 66.264C200.884 66.424 201.38 66.504 202.02 66.504C203.012 66.504 203.94 66.328 204.804 65.976C205.668 65.624 206.404 65.176 207.012 64.632C207.652 64.056 208.148 63.416 208.5 62.712C208.852 61.976 209.028 61.224 209.028 60.456C209.028 59.496 208.772 58.664 208.26 57.96C207.78 57.256 206.948 56.904 205.764 56.904C204.548 56.904 203.428 57.336 202.404 58.2C201.38 59.032 200.452 60.056 199.62 61.272C198.82 62.456 198.132 63.72 197.556 65.064C196.98 66.376 196.548 67.528 196.26 68.52C196.1 69.064 195.956 69.4 195.828 69.528C195.7 69.656 195.556 69.72 195.396 69.72C195.044 69.72 194.884 69.384 194.916 68.712C194.916 68.424 194.932 68.072 194.964 67.656C194.996 67.24 195.028 66.792 195.06 66.312C195.06 65.832 195.076 65.352 195.108 64.872C195.14 64.36 195.156 63.896 195.156 63.48C195.156 62.04 195.124 60.392 195.06 58.536C194.996 56.648 194.916 54.712 194.82 52.728C194.724 50.712 194.644 48.712 194.58 46.728C194.516 44.744 194.484 42.92 194.484 41.256C194.484 39.944 194.58 38.68 194.772 37.464C194.964 36.216 195.268 35.128 195.684 34.2C196.1 33.24 196.628 32.488 197.268 31.944C197.908 31.368 198.66 31.08 199.524 31.08C200.42 31.08 201.172 31.24 201.78 31.56C202.42 31.848 202.932 32.28 203.316 32.856C203.7 33.4 203.972 34.072 204.132 34.872C204.324 35.64 204.42 36.488 204.42 37.416C204.42 39.016 204.196 40.776 203.748 42.696C203.3 44.584 202.708 46.488 201.972 48.408C201.236 50.328 200.388 52.184 199.428 53.976C198.5 55.736 197.54 57.272 196.548 58.584C196.612 59.544 196.644 60.536 196.644 61.56C196.676 62.584 196.724 63.672 196.788 64.824C197.588 63.096 198.468 61.608 199.428 60.36C199.844 59.816 200.308 59.288 200.82 58.776C201.364 58.232 201.924 57.752 202.5 57.336C203.108 56.92 203.748 56.584 204.42 56.328C205.124 56.072 205.86 55.944 206.628 55.944C207.844 55.944 208.9 56.248 209.796 56.856C210.692 57.464 211.14 58.44 211.14 59.784C211.14 61.064 210.82 62.152 210.18 63.048C209.572 63.944 208.804 64.696 207.876 65.304C206.948 65.88 205.956 66.312 204.9 66.6C203.844 66.888 202.884 67.064 202.02 67.128C201.956 67.128 201.924 67.144 201.924 67.176C201.924 67.24 201.972 67.336 202.068 67.464C202.708 68.2 203.428 68.728 204.228 69.048C205.028 69.368 205.86 69.528 206.724 69.528C207.78 69.528 208.852 69.336 209.94 68.952C211.028 68.536 212.068 68.008 213.06 67.368C214.052 66.696 214.964 65.944 215.796 65.112C216.66 64.248 217.364 63.384 217.908 62.52C218.228 62.04 218.516 61.544 218.772 61.032C219.028 60.52 219.284 60.008 219.54 59.496L220.452 59.736Z" fill="#1F1711"/>
<path d="M227.219 56.76C227.219 55.896 226.995 55.192 226.547 54.648C226.131 54.072 225.443 53.784 224.483 53.784C223.971 53.784 223.507 53.944 223.091 54.264C222.675 54.584 222.323 55.016 222.035 55.56C221.747 56.072 221.523 56.68 221.363 57.384C221.203 58.088 221.123 58.824 221.123 59.592C221.123 60.808 221.251 61.896 221.507 62.856C221.795 63.784 222.195 64.6 222.707 65.304C223.379 64.76 223.987 64.136 224.531 63.432C225.075 62.728 225.539 61.992 225.923 61.224C226.339 60.456 226.659 59.688 226.883 58.92C227.107 58.152 227.219 57.432 227.219 56.76ZM239.363 59.736C239.139 60.216 238.899 60.712 238.643 61.224C238.419 61.704 238.131 62.184 237.779 62.664C236.211 64.904 234.419 66.6 232.403 67.752C230.419 68.872 228.515 69.432 226.691 69.432C225.667 69.432 224.707 69.256 223.811 68.904C222.947 68.552 222.195 68.024 221.555 67.32C220.915 66.616 220.403 65.736 220.019 64.68C219.635 63.624 219.443 62.376 219.443 60.936C219.443 59.976 219.587 59.016 219.875 58.056C220.163 57.096 220.547 56.232 221.027 55.464C221.539 54.696 222.115 54.072 222.755 53.592C223.427 53.112 224.131 52.872 224.867 52.872C226.051 52.872 226.915 53.224 227.459 53.928C228.003 54.6 228.275 55.464 228.275 56.52C228.275 57.96 227.827 59.528 226.931 61.224C226.067 62.888 224.819 64.44 223.187 65.88C224.403 67.256 225.971 67.944 227.891 67.944C229.331 67.944 230.835 67.512 232.403 66.648C233.971 65.752 235.443 64.376 236.819 62.52C237.171 62.072 237.459 61.592 237.683 61.08C237.939 60.536 238.195 60.008 238.451 59.496L239.363 59.736Z" fill="#1F1711"/>
</svg>
