<svg width="168" height="86" viewBox="0 0 168 86" fill="none" xmlns="http://www.w3.org/2000/svg">
<path d="M33.4059 72.1315C33.5209 69.9254 33.2785 67.9666 32.6787 66.2552C32.1455 64.5411 31.3843 62.9693 30.3951 61.5397C29.4725 60.1076 28.3514 58.7165 27.0316 57.3664C25.7785 56.0137 24.4562 54.597 23.0647 53.1162C21.7273 53.0344 20.5563 52.9462 19.5519 52.8515C18.5449 52.6903 17.5021 52.4637 16.4234 52.1717C15.3143 54.5496 14.0156 57.2017 12.5274 60.1279C11.0391 63.0542 9.64955 65.9433 8.3586 68.7952C7.06765 71.6471 6.00214 74.2902 5.16208 76.7244C4.25798 79.2278 3.83292 81.179 3.88693 82.5779C3.66161 83.6541 3.28248 84.2025 2.74954 84.223C2.21918 84.3102 1.74128 84.0285 1.31587 83.3777C0.826402 82.7962 0.493194 81.9417 0.316243 80.8144C0.075245 79.7562 0.131453 78.6199 0.484866 77.4053C0.769091 76.1267 1.3684 74.369 2.28279 72.132C3.13314 69.9643 4.14231 67.5903 5.31031 65.01C6.48089 62.4963 7.71679 59.9467 9.01803 57.3612C10.3193 54.7758 11.4976 52.4619 12.5529 50.4197C11.8662 49.9125 11.442 49.2951 11.2805 48.5674C11.1856 47.8372 11.2611 47.2005 11.507 46.6573C11.8195 46.1115 12.2717 45.7271 12.8635 45.5041C13.5194 45.2119 14.3227 45.281 15.2733 45.7113C17.6479 41.5499 20.1903 37.4154 22.9005 33.3078C25.6082 29.1336 28.298 25.3604 30.9699 21.9881C33.6392 18.5493 36.1972 15.6818 38.6438 13.3857C41.1544 11.0204 43.3654 9.53405 45.2767 8.92654C47.8619 8.49316 49.7823 8.98612 51.038 10.4054C52.2911 11.7581 52.6001 13.7143 51.9651 16.274C51.6142 17.5552 51.0803 19.277 50.3632 21.4396C49.7101 23.5331 48.9379 25.998 48.0467 28.8345C47.1529 31.6044 46.2027 34.6433 45.1962 37.9512C44.2564 41.2566 43.3895 44.726 42.5958 48.3593C44.5148 47.9516 46.4274 47.3774 48.3336 46.6367C50.2398 45.8959 52.0435 45.0924 53.7446 44.2262C55.4433 43.2933 56.9753 42.3668 58.3409 41.4468C59.7704 40.4576 60.9028 39.5466 61.738 38.7137C62.8167 39.0057 62.9782 39.7333 62.2225 40.8967C61.5309 41.9908 60.1782 43.2439 58.1645 44.656C56.2174 46.0655 53.8027 47.4597 50.9205 48.8385C48.0356 50.1508 45.0034 51.1018 41.8237 51.6916C40.9199 55.9296 40.2184 60.2265 39.7194 64.5823C39.223 69.0048 39.0929 73.4131 39.3293 77.8072C39.0605 79.4855 38.5917 80.3042 37.923 80.2633C37.2542 80.2224 36.5675 79.7152 35.8627 78.7416C35.2272 77.8321 34.6505 76.7202 34.1328 75.4059C33.615 74.0916 33.3727 73.0001 33.4059 72.1315ZM37.4189 49.0595C38.1718 46.0949 39.0528 42.992 40.0618 39.7506C41.1349 36.4401 42.2106 33.1962 43.2888 30.0189C44.3671 26.8416 45.4492 23.7643 46.5351 20.7868C47.6185 17.7428 48.5789 14.9703 49.4164 12.4695C49.6495 11.5932 49.4675 11.1999 48.8705 11.2897C48.271 11.3128 47.5472 11.5743 46.6992 12.074C44.2755 13.235 41.7174 15.2352 39.0249 18.0745C36.3299 20.8472 33.7143 23.9504 31.1782 27.3841C28.6421 30.8178 26.2751 34.3117 24.0772 37.8658C21.9434 41.3507 20.1938 44.4205 18.8286 47.0752C19.3052 47.3236 19.8484 47.5695 20.4582 47.8128C21.0681 48.0562 21.5793 48.3367 21.9918 48.6543C23.6701 48.9231 25.6789 49.1124 28.0182 49.2223C30.4216 49.2629 33.5551 49.2087 37.4189 49.0595ZM36.4586 52.6993C33.9297 52.8636 31.8646 52.9433 30.2632 52.9384C28.7285 52.931 27.5947 52.9414 26.8619 52.9697C28.5302 54.7066 29.864 56.4231 30.8635 58.1191C31.9296 59.8126 33.1316 61.5675 34.4693 63.384C34.6254 62.2438 34.7803 61.0702 34.9338 59.8634C35.154 58.654 35.4062 57.41 35.6904 56.1315L36.4586 52.6993Z" fill="#1D1D1A"/>
<path d="M95.6627 37.3041C96.1905 37.1502 96.7235 37.1297 97.2615 37.2423C97.797 37.2884 98.1699 37.4408 98.38 37.6995C98.6542 37.8891 98.6965 38.121 98.5069 38.3951C98.384 38.6668 97.9254 38.8846 97.1311 39.0487C95.9397 39.2948 94.6228 39.746 93.1804 40.4021C91.7354 40.9916 90.2596 41.649 88.7532 42.3744C87.2467 43.0997 85.7748 43.857 84.3375 44.6464C82.8977 45.3691 81.5898 46.0534 80.4138 46.6993C79.7965 47.9907 79.0831 49.3859 78.2737 50.8849C77.4616 52.3173 76.5471 53.687 75.5301 54.9938C74.5131 56.3007 73.3897 57.4449 72.16 58.4264C70.9303 59.4079 69.6198 60.0256 68.2286 60.2794C67.5009 60.4409 66.8962 60.3308 66.4145 59.9491C65.9353 59.6341 65.7456 59.0409 65.8454 58.1698C65.9041 56.2327 66.6648 54.3353 68.1275 52.4775C69.6569 50.6171 72.0203 48.7579 75.2177 46.8998C75.5122 45.8877 75.7721 44.8436 75.9974 43.7674C76.2202 42.6247 76.4109 41.5165 76.5696 40.4429C76.8947 38.4956 77.0662 36.8878 77.0839 35.6195C77.0991 34.2845 76.8658 33.4262 76.3841 33.0445C75.9689 32.6603 75.24 32.7885 74.1973 33.4292C73.1546 34.0699 71.7699 35.3576 70.0432 37.2923C68.5113 39.0861 66.9589 41.2142 65.386 43.6767C63.8106 46.0726 62.2749 48.6337 60.779 51.3601C59.2805 54.0199 57.8524 56.7771 56.4948 59.6315C55.1373 62.486 53.9424 65.2342 52.9102 67.876C51.8806 70.5844 51.0751 73.0506 50.4938 75.2747C49.8485 77.5679 49.5233 79.5153 49.5184 81.1166C49.4443 82.654 49.2242 83.8634 48.8579 84.7448C48.4916 85.6263 48.0728 86.0094 47.6013 85.8942C46.4585 85.6714 45.7039 85.1335 45.3373 84.2803C44.9734 83.4937 44.9271 82.2946 45.1985 80.683C45.4058 79.1405 45.9282 77.1188 46.7657 74.618C47.5391 72.1863 48.5931 69.2435 49.9275 65.7895C50.7164 63.7575 51.5897 61.322 52.5476 58.483C53.4389 55.6465 54.3596 52.7088 55.3097 49.6698C56.3239 46.5617 57.3061 43.4882 58.2562 40.4493C59.2064 37.4104 60.0361 34.7097 60.7455 32.3473C61.519 29.9156 62.1785 27.9888 62.724 26.5666C63.267 25.0779 63.6051 24.331 63.7383 24.3259C66.6054 24.2819 68.1313 24.9235 68.316 26.2507C68.4981 27.5113 68.0013 29.3318 66.8256 31.7123C65.7139 34.0235 64.2538 36.8153 62.4454 40.0875C60.701 43.2905 59.3038 46.847 58.2538 50.7571C58.2947 50.0883 58.6251 49.1416 59.245 47.9167C59.9315 46.6893 60.7461 45.3236 61.6888 43.8194C62.6981 42.3127 63.806 40.7688 65.0126 39.1878C66.2832 37.5375 67.5577 35.9872 68.836 34.5368C70.8214 32.392 72.4995 30.9261 73.8701 30.1394C75.3074 29.35 76.4975 29.0705 77.4405 29.301C78.3808 29.4649 79.1034 30.0374 79.6083 31.0187C80.1798 31.9973 80.5605 33.2169 80.7503 34.6773C81.0042 36.0686 81.1299 37.5982 81.1276 39.2662C81.1227 40.8676 81.0486 42.4049 80.9053 43.8782C82.4759 43.0837 84.6036 42.0342 87.2886 40.7296C89.9711 39.3585 92.7624 38.2166 95.6627 37.3041ZM71.437 55.2519C71.7624 55.0392 72.048 54.6612 72.2939 54.118C72.5398 53.5748 72.9074 52.7266 73.3966 51.5736C72.4282 52.4116 71.7237 53.1726 71.2831 53.8568C70.8399 54.4744 70.8912 54.9394 71.437 55.2519Z" fill="#1D1D1A"/>
<path d="M84.0972 23.9402C82.7443 23.4587 81.8526 22.826 81.422 22.042C80.9222 21.194 80.9503 20.1922 81.5061 19.0365C82.1952 17.8758 83.3237 16.8648 84.8917 16.0037C86.393 15.1451 88.1326 14.4108 90.1106 13.8007C92.0885 13.1906 94.2035 12.6753 96.4557 12.2548C98.7744 11.8317 101.029 11.4778 103.22 11.1931L107.262 1.83023C107.892 0.871872 108.508 0.414433 109.11 0.457908C109.712 0.50138 110.191 0.816463 110.548 1.40316C110.904 1.98985 111.133 2.74824 111.236 3.6783C111.405 4.6058 111.337 5.44237 111.032 6.18801C110.912 6.52624 110.661 6.93623 110.279 7.41798C109.898 7.89973 109.37 8.92084 108.696 10.4813C110.759 10.335 112.824 10.2553 114.892 10.2422C116.957 10.1624 118.891 10.1545 120.695 10.2183C122.499 10.2821 124.105 10.4202 125.515 10.6327C126.921 10.7785 128.031 11.0026 128.843 11.3048C129.317 11.4866 129.561 11.7441 129.573 12.0772C129.65 12.3411 129.559 12.5781 129.301 12.7882C129.109 12.9958 128.814 13.1406 128.417 13.2227C128.02 13.3047 127.617 13.2535 127.21 13.0691C124.525 12.639 121.383 12.4934 117.786 12.6323C114.253 12.702 110.761 12.9702 107.309 13.437C106.203 15.8815 104.949 18.8321 103.548 22.2887C102.214 25.7428 100.884 29.33 99.5602 33.0505C98.3026 36.7685 97.1092 40.4172 95.9797 43.9968C94.9169 47.5738 94.1039 50.7075 93.5406 53.3979C93.0439 56.0857 92.8571 58.1611 92.9803 59.6241C93.1701 61.0846 93.8876 61.5239 95.1328 60.9421C95.7246 60.7191 96.5956 59.9516 97.7459 58.6396C98.9653 57.3916 100.276 55.9066 101.677 54.1846C103.142 52.3934 104.637 50.501 106.161 48.5074C107.686 46.5138 109.115 44.6573 110.45 42.9378C111.782 41.1518 112.891 39.6412 113.777 38.4061C114.73 37.1684 115.303 36.4458 115.495 36.2382C115.62 36.0332 115.914 35.8551 116.375 35.7039C116.903 35.5501 117.171 35.5731 117.178 35.773C116.935 36.3828 116.378 37.5051 115.507 39.1399C114.633 40.7081 113.57 42.5505 112.318 44.6671C111.063 46.717 109.645 48.8733 108.064 51.136C106.548 53.3294 104.991 55.3576 103.395 57.2206C101.869 59.1476 100.361 60.7069 98.8724 61.8985C97.4506 63.0876 96.2054 63.6694 95.137 63.6439C93.1359 63.6545 91.6702 62.8437 90.7399 61.2117C89.8788 59.6438 89.3725 57.7619 89.221 55.5661C89.195 53.1653 89.5853 50.3148 90.392 47.0146C91.196 43.6477 92.1935 40.1066 93.3844 36.3913C94.6394 32.6067 95.9942 28.8183 97.449 25.026C98.9679 21.1645 100.429 17.5388 101.833 14.1488C99.7138 14.5642 97.6962 15.009 95.7797 15.4833C93.8632 15.9576 92.1492 16.4908 90.6376 17.0828C89.1234 17.6083 87.8769 18.1568 86.8983 18.7283C85.853 19.3024 85.142 19.8969 84.7655 20.5119C84.5119 20.8553 84.4914 21.1896 84.7041 21.515C84.9168 21.8404 85.1628 22.1645 85.4422 22.4873C86.0623 22.9971 86.4441 23.3826 86.5876 23.6439C86.6645 23.9078 86.6044 24.077 86.4071 24.1513C86.2098 24.2256 85.91 24.2372 85.5077 24.186C85.0389 24.1374 84.5687 24.0555 84.0972 23.9402Z" fill="#1D1D1A"/>
<path d="M125.314 45.8666C124.674 48.2931 123.497 50.6403 121.783 52.9081C120.134 55.1067 118.363 56.7762 116.473 57.9167C114.584 59.1237 112.801 59.5929 111.123 59.3241C109.445 59.0553 108.289 57.6321 107.656 55.0546C107.184 53.2048 107.135 51.0718 107.509 48.6556C107.816 46.2419 108.46 43.9153 109.441 41.6758C110.486 39.3671 111.809 37.3479 113.41 35.6182C115.011 33.8885 116.838 32.8172 118.89 32.4044C119.948 32.1634 120.777 32.0313 121.377 32.0082C121.976 31.9851 122.324 32.3386 122.418 33.0688C122.493 33.2661 122.768 33.489 123.245 33.7374C123.722 33.9859 124.235 34.333 124.786 34.7788C125.335 35.1579 125.821 35.6728 126.247 36.3236C126.672 36.9743 126.839 37.8352 126.747 38.9062C126.685 39.042 126.628 39.2777 126.574 39.6134C126.52 39.949 126.5 40.2834 126.513 40.6165C126.526 40.9496 126.57 41.2481 126.647 41.512C126.724 41.7759 126.863 41.904 127.062 41.8962C128.333 41.9806 130.183 41.5089 132.612 40.4811C135.105 39.3841 138.282 37.8605 142.143 35.9101C142.494 36.3635 142.577 36.794 142.393 37.2014C142.275 37.6062 142.055 37.9483 141.732 38.2276C140.379 39.4808 138.887 40.5725 137.255 41.5028C135.689 42.4305 134.152 43.2237 132.643 43.8824C131.134 44.5411 129.719 45.0294 128.397 45.3474C127.141 45.6627 126.114 45.8358 125.314 45.8666ZM120.322 46.1594C119.709 45.8495 119.32 45.2641 119.153 44.4032C118.987 43.5423 118.916 42.5777 118.941 41.5092C119.034 40.4382 119.16 39.3992 119.322 38.3922C119.48 37.3186 119.613 36.4462 119.721 35.7749C118.809 36.3438 117.812 37.3163 116.731 38.6924C115.717 40.0659 114.775 41.6033 113.907 43.3048C113.105 45.0036 112.439 46.7639 111.909 48.5858C111.446 50.405 111.274 52.0128 111.395 53.4092C111.464 55.2078 111.964 56.0559 112.894 55.9532C113.824 55.8506 114.803 55.2791 115.83 54.2387C116.924 53.1957 117.908 51.8902 118.781 50.322C119.721 48.7512 120.235 47.3637 120.322 46.1594Z" fill="#1D1D1A"/>
<path d="M148.456 52.7791C148.295 53.7861 147.968 54.8328 147.476 55.9192C147.051 57.0031 146.524 58.0242 145.893 58.9826C145.266 60.0075 144.633 60.8993 143.995 61.6578C143.36 62.4829 142.75 63.1069 142.166 63.5297C141.195 64.3011 140.278 64.7368 139.414 64.8369C138.618 64.9343 137.976 64.7256 137.489 64.2107C137.004 63.7623 136.744 63.0719 136.708 62.1392C136.672 61.2066 136.995 60.06 137.676 58.6993C138.847 56.1856 140.94 53.3695 143.955 50.2508C142.138 48.1193 141.128 46.1568 140.926 44.3633C140.721 42.5032 140.625 40.9057 140.641 39.5707C140.643 37.9027 141.018 36.3871 141.766 35.0239C142.578 33.5916 143.499 32.3885 144.529 31.4147C145.556 30.3743 146.559 29.5683 147.538 28.9968C148.581 28.3561 149.367 27.9922 149.898 27.905C150.497 27.8818 150.839 28.1021 150.924 28.5659C151.072 28.9604 150.983 29.2308 150.655 29.3769C149.287 30.2303 148.165 31.4078 147.289 32.9093C146.413 34.4109 145.808 36.0354 145.475 37.7829C145.14 39.4638 145.074 41.201 145.276 42.9945C145.476 44.7214 145.934 46.2048 146.649 47.4448C149.162 45.1462 152.111 42.8974 155.495 40.6986C158.88 38.4997 162.673 36.5186 166.874 34.7552C167.202 34.6091 167.406 34.7013 167.486 35.0318C167.565 35.3624 167.541 35.5968 167.413 35.7352C167.092 36.0811 166.412 36.6077 165.372 37.3151C164.329 37.9558 163.092 38.7374 161.66 39.66C160.294 40.58 158.833 41.6038 157.275 42.7314C155.781 43.7898 154.39 44.911 153.102 46.0949C151.81 47.2122 150.72 48.3551 149.831 49.5236C148.943 50.6921 148.484 51.7773 148.456 52.7791Z" fill="#1D1D1A"/>
</svg>
