<svg width="131" height="117" viewBox="0 0 131 117" fill="none" xmlns="http://www.w3.org/2000/svg">
<g clip-path="url(#clip0_1_340)">
<path d="M1.52326 3.05217C2.36453 3.05217 3.04651 2.36892 3.04651 1.52609C3.04651 0.683252 2.36453 0 1.52326 0C0.681985 0 0 0.683252 0 1.52609C0 2.36892 0.681985 3.05217 1.52326 3.05217Z" fill="url(#paint0_linear_1_340)"/>
<path d="M44.1744 3.05217C45.0157 3.05217 45.6977 2.36892 45.6977 1.52609C45.6977 0.683252 45.0157 0 44.1744 0C43.3332 0 42.6512 0.683252 42.6512 1.52609C42.6512 2.36892 43.3332 3.05217 44.1744 3.05217Z" fill="url(#paint1_linear_1_340)"/>
<path d="M86.8256 3.05217C87.6669 3.05217 88.3488 2.36892 88.3488 1.52609C88.3488 0.683252 87.6669 0 86.8256 0C85.9843 0 85.3023 0.683252 85.3023 1.52609C85.3023 2.36892 85.9843 3.05217 86.8256 3.05217Z" fill="url(#paint2_linear_1_340)"/>
<path d="M129.477 3.05217C130.318 3.05217 131 2.36892 131 1.52609C131 0.683252 130.318 0 129.477 0C128.635 0 127.953 0.683252 127.953 1.52609C127.953 2.36892 128.635 3.05217 129.477 3.05217Z" fill="url(#paint3_linear_1_340)"/>
<path d="M1.52326 31.539C2.36453 31.539 3.04651 30.8557 3.04651 30.0129C3.04651 29.1701 2.36453 28.4868 1.52326 28.4868C0.681985 28.4868 0 29.1701 0 30.0129C0 30.8557 0.681985 31.539 1.52326 31.539Z" fill="url(#paint4_linear_1_340)"/>
<path d="M44.1744 31.539C45.0157 31.539 45.6977 30.8557 45.6977 30.0129C45.6977 29.1701 45.0157 28.4868 44.1744 28.4868C43.3332 28.4868 42.6512 29.1701 42.6512 30.0129C42.6512 30.8557 43.3332 31.539 44.1744 31.539Z" fill="url(#paint5_linear_1_340)"/>
<path d="M86.8256 31.539C87.6669 31.539 88.3488 30.8557 88.3488 30.0129C88.3488 29.1701 87.6669 28.4868 86.8256 28.4868C85.9843 28.4868 85.3023 29.1701 85.3023 30.0129C85.3023 30.8557 85.9843 31.539 86.8256 31.539Z" fill="url(#paint6_linear_1_340)"/>
<path d="M129.477 31.539C130.318 31.539 131 30.8557 131 30.0129C131 29.1701 130.318 28.4868 129.477 28.4868C128.635 28.4868 127.953 29.1701 127.953 30.0129C127.953 30.8557 128.635 31.539 129.477 31.539Z" fill="url(#paint7_linear_1_340)"/>
<path d="M1.52326 60.0263C2.36453 60.0263 3.04651 59.343 3.04651 58.5002C3.04651 57.6574 2.36453 56.9741 1.52326 56.9741C0.681985 56.9741 0 57.6574 0 58.5002C0 59.343 0.681985 60.0263 1.52326 60.0263Z" fill="url(#paint8_linear_1_340)"/>
<path d="M44.1744 60.0263C45.0157 60.0263 45.6977 59.343 45.6977 58.5002C45.6977 57.6574 45.0157 56.9741 44.1744 56.9741C43.3332 56.9741 42.6512 57.6574 42.6512 58.5002C42.6512 59.343 43.3332 60.0263 44.1744 60.0263Z" fill="url(#paint9_linear_1_340)"/>
<path d="M86.8256 60.0263C87.6669 60.0263 88.3488 59.343 88.3488 58.5002C88.3488 57.6574 87.6669 56.9741 86.8256 56.9741C85.9843 56.9741 85.3023 57.6574 85.3023 58.5002C85.3023 59.343 85.9843 60.0263 86.8256 60.0263Z" fill="url(#paint10_linear_1_340)"/>
<path d="M129.477 60.0263C130.318 60.0263 131 59.343 131 58.5002C131 57.6574 130.318 56.9741 129.477 56.9741C128.635 56.9741 127.953 57.6574 127.953 58.5002C127.953 59.343 128.635 60.0263 129.477 60.0263Z" fill="url(#paint11_linear_1_340)"/>
<path d="M1.52326 88.5131C2.36453 88.5131 3.04651 87.8299 3.04651 86.987C3.04651 86.1442 2.36453 85.4609 1.52326 85.4609C0.681985 85.4609 0 86.1442 0 86.987C0 87.8299 0.681985 88.5131 1.52326 88.5131Z" fill="url(#paint12_linear_1_340)"/>
<path d="M44.1744 88.5131C45.0157 88.5131 45.6977 87.8299 45.6977 86.987C45.6977 86.1442 45.0157 85.4609 44.1744 85.4609C43.3332 85.4609 42.6512 86.1442 42.6512 86.987C42.6512 87.8299 43.3332 88.5131 44.1744 88.5131Z" fill="url(#paint13_linear_1_340)"/>
<path d="M86.8256 88.5131C87.6669 88.5131 88.3488 87.8299 88.3488 86.987C88.3488 86.1442 87.6669 85.4609 86.8256 85.4609C85.9843 85.4609 85.3023 86.1442 85.3023 86.987C85.3023 87.8299 85.9843 88.5131 86.8256 88.5131Z" fill="url(#paint14_linear_1_340)"/>
<path d="M129.477 88.5131C130.318 88.5131 131 87.8299 131 86.987C131 86.1442 130.318 85.4609 129.477 85.4609C128.635 85.4609 127.953 86.1442 127.953 86.987C127.953 87.8299 128.635 88.5131 129.477 88.5131Z" fill="url(#paint15_linear_1_340)"/>
<path d="M1.52326 117C2.36453 117 3.04651 116.317 3.04651 115.474C3.04651 114.631 2.36453 113.948 1.52326 113.948C0.681985 113.948 0 114.631 0 115.474C0 116.317 0.681985 117 1.52326 117Z" fill="url(#paint16_linear_1_340)"/>
<path d="M44.1744 117C45.0157 117 45.6977 116.317 45.6977 115.474C45.6977 114.631 45.0157 113.948 44.1744 113.948C43.3332 113.948 42.6512 114.631 42.6512 115.474C42.6512 116.317 43.3332 117 44.1744 117Z" fill="url(#paint17_linear_1_340)"/>
<path d="M86.8256 117C87.6669 117 88.3488 116.317 88.3488 115.474C88.3488 114.631 87.6669 113.948 86.8256 113.948C85.9843 113.948 85.3023 114.631 85.3023 115.474C85.3023 116.317 85.9843 117 86.8256 117Z" fill="url(#paint18_linear_1_340)"/>
<path d="M129.477 117C130.318 117 131 116.317 131 115.474C131 114.631 130.318 113.948 129.477 113.948C128.635 113.948 127.953 114.631 127.953 115.474C127.953 116.317 128.635 117 129.477 117Z" fill="url(#paint19_linear_1_340)"/>
</g>
<defs>
<linearGradient id="paint0_linear_1_340" x1="1.52326" y1="0" x2="1.52326" y2="3.05217" gradientUnits="userSpaceOnUse">
<stop stop-color="#AB2E86"/>
<stop offset="1" stop-color="#D25DC8"/>
</linearGradient>
<linearGradient id="paint1_linear_1_340" x1="44.1744" y1="0" x2="44.1744" y2="3.05217" gradientUnits="userSpaceOnUse">
<stop stop-color="#AB2E86"/>
<stop offset="1" stop-color="#D25DC8"/>
</linearGradient>
<linearGradient id="paint2_linear_1_340" x1="86.8256" y1="0" x2="86.8256" y2="3.05217" gradientUnits="userSpaceOnUse">
<stop stop-color="#AB2E86"/>
<stop offset="1" stop-color="#D25DC8"/>
</linearGradient>
<linearGradient id="paint3_linear_1_340" x1="129.477" y1="0" x2="129.477" y2="3.05217" gradientUnits="userSpaceOnUse">
<stop stop-color="#AB2E86"/>
<stop offset="1" stop-color="#D25DC8"/>
</linearGradient>
<linearGradient id="paint4_linear_1_340" x1="1.52326" y1="28.4868" x2="1.52326" y2="31.539" gradientUnits="userSpaceOnUse">
<stop stop-color="#AB2E86"/>
<stop offset="1" stop-color="#D25DC8"/>
</linearGradient>
<linearGradient id="paint5_linear_1_340" x1="44.1744" y1="28.4868" x2="44.1744" y2="31.539" gradientUnits="userSpaceOnUse">
<stop stop-color="#AB2E86"/>
<stop offset="1" stop-color="#D25DC8"/>
</linearGradient>
<linearGradient id="paint6_linear_1_340" x1="86.8256" y1="28.4868" x2="86.8256" y2="31.539" gradientUnits="userSpaceOnUse">
<stop stop-color="#AB2E86"/>
<stop offset="1" stop-color="#D25DC8"/>
</linearGradient>
<linearGradient id="paint7_linear_1_340" x1="129.477" y1="28.4868" x2="129.477" y2="31.539" gradientUnits="userSpaceOnUse">
<stop stop-color="#AB2E86"/>
<stop offset="1" stop-color="#D25DC8"/>
</linearGradient>
<linearGradient id="paint8_linear_1_340" x1="1.52326" y1="56.9741" x2="1.52326" y2="60.0263" gradientUnits="userSpaceOnUse">
<stop stop-color="#AB2E86"/>
<stop offset="1" stop-color="#D25DC8"/>
</linearGradient>
<linearGradient id="paint9_linear_1_340" x1="44.1744" y1="56.9741" x2="44.1744" y2="60.0263" gradientUnits="userSpaceOnUse">
<stop stop-color="#AB2E86"/>
<stop offset="1" stop-color="#D25DC8"/>
</linearGradient>
<linearGradient id="paint10_linear_1_340" x1="86.8256" y1="56.9741" x2="86.8256" y2="60.0263" gradientUnits="userSpaceOnUse">
<stop stop-color="#AB2E86"/>
<stop offset="1" stop-color="#D25DC8"/>
</linearGradient>
<linearGradient id="paint11_linear_1_340" x1="129.477" y1="56.9741" x2="129.477" y2="60.0263" gradientUnits="userSpaceOnUse">
<stop stop-color="#AB2E86"/>
<stop offset="1" stop-color="#D25DC8"/>
</linearGradient>
<linearGradient id="paint12_linear_1_340" x1="1.52326" y1="85.4609" x2="1.52326" y2="88.5131" gradientUnits="userSpaceOnUse">
<stop stop-color="#AB2E86"/>
<stop offset="1" stop-color="#D25DC8"/>
</linearGradient>
<linearGradient id="paint13_linear_1_340" x1="44.1744" y1="85.4609" x2="44.1744" y2="88.5131" gradientUnits="userSpaceOnUse">
<stop stop-color="#AB2E86"/>
<stop offset="1" stop-color="#D25DC8"/>
</linearGradient>
<linearGradient id="paint14_linear_1_340" x1="86.8256" y1="85.4609" x2="86.8256" y2="88.5131" gradientUnits="userSpaceOnUse">
<stop stop-color="#AB2E86"/>
<stop offset="1" stop-color="#D25DC8"/>
</linearGradient>
<linearGradient id="paint15_linear_1_340" x1="129.477" y1="85.4609" x2="129.477" y2="88.5131" gradientUnits="userSpaceOnUse">
<stop stop-color="#AB2E86"/>
<stop offset="1" stop-color="#D25DC8"/>
</linearGradient>
<linearGradient id="paint16_linear_1_340" x1="1.52326" y1="113.948" x2="1.52326" y2="117" gradientUnits="userSpaceOnUse">
<stop stop-color="#AB2E86"/>
<stop offset="1" stop-color="#D25DC8"/>
</linearGradient>
<linearGradient id="paint17_linear_1_340" x1="44.1744" y1="113.948" x2="44.1744" y2="117" gradientUnits="userSpaceOnUse">
<stop stop-color="#AB2E86"/>
<stop offset="1" stop-color="#D25DC8"/>
</linearGradient>
<linearGradient id="paint18_linear_1_340" x1="86.8256" y1="113.948" x2="86.8256" y2="117" gradientUnits="userSpaceOnUse">
<stop stop-color="#AB2E86"/>
<stop offset="1" stop-color="#D25DC8"/>
</linearGradient>
<linearGradient id="paint19_linear_1_340" x1="129.477" y1="113.948" x2="129.477" y2="117" gradientUnits="userSpaceOnUse">
<stop stop-color="#AB2E86"/>
<stop offset="1" stop-color="#D25DC8"/>
</linearGradient>
<clipPath id="clip0_1_340">
<rect width="131" height="117" fill="white"/>
</clipPath>
</defs>
</svg>
