<svg width="224" height="210" viewBox="0 0 224 210" fill="none" xmlns="http://www.w3.org/2000/svg">
<circle cx="111.636" cy="105" r="6" fill="white"/>
<path d="M58.4204 203.908L49.8193 198.351L50.503 197.293L57.8778 202.057L60.3632 198.21L56.5162 195.725C55.1275 194.828 54.2593 193.862 53.9115 192.828C53.5526 191.786 53.724 190.722 54.4259 189.636C55.1566 188.505 56.1094 187.89 57.284 187.792C58.4475 187.686 59.7572 188.104 61.2131 189.044L66.0176 192.148L58.4204 203.908ZM60.5896 190.046C59.5032 189.345 58.5518 189.024 57.7353 189.083C56.9077 189.136 56.2297 189.571 55.7015 190.389C55.1806 191.195 55.0679 191.971 55.3634 192.718C55.6405 193.468 56.3334 194.202 57.4422 194.918L61.0035 197.219L64.151 192.347L60.5896 190.046Z" fill="#B68C6E"/>
<path d="M42.0626 174.661L42.9566 173.745L50.0419 180.659L40.264 190.679L33.3934 183.974L34.2874 183.058L40.0988 188.729L43.5769 185.165L38.3953 180.109L39.2753 179.207L44.4569 184.263L48.0887 180.542L42.0626 174.661Z" fill="#B68C6E"/>
<path d="M28.8313 167.358C28.4811 166.478 28.399 165.652 28.585 164.88C28.7633 164.097 29.1942 163.461 29.8778 162.973C30.5396 162.501 31.2674 162.292 32.0609 162.348C32.8545 162.404 33.631 162.677 34.3905 163.166C35.1391 163.664 35.8001 164.314 36.3736 165.117C36.916 165.877 37.3314 166.711 37.6197 167.619C37.8893 168.524 37.9892 169.444 37.9194 170.379L36.743 170.555C36.8097 169.754 36.7284 168.952 36.499 168.149C36.2588 167.354 35.9062 166.631 35.4412 165.98C34.9995 165.361 34.495 164.861 33.9278 164.48C33.3605 164.099 32.7894 163.884 32.2143 163.836C31.6207 163.785 31.0743 163.937 30.5752 164.294C29.9133 164.767 29.5894 165.391 29.6033 166.168C29.6172 166.944 29.9612 167.805 30.6354 168.749L32.379 171.19L31.4025 171.887L29.7054 169.511C29.132 168.708 28.5182 168.204 27.8641 168C27.1915 167.792 26.5513 167.905 25.9437 168.339C25.271 168.82 24.9501 169.483 24.9811 170.329C25.0012 171.183 25.3212 172.044 25.9412 172.912C26.3286 173.455 26.8013 173.945 27.3593 174.382C27.9064 174.827 28.5155 175.186 29.1867 175.461L28.4845 176.577C27.0058 175.929 25.7977 174.948 24.86 173.635C24.3098 172.865 23.9309 172.071 23.7232 171.252C23.5156 170.434 23.5133 169.673 23.7164 168.971C23.9117 168.258 24.324 167.677 24.9533 167.228C25.5609 166.794 26.2073 166.586 26.8924 166.605C27.5666 166.631 28.2129 166.882 28.8313 167.358Z" fill="#B68C6E"/>
<path d="M27.3293 149.404C27.9235 150.657 28.1863 151.927 28.1177 153.214C28.0313 154.494 27.6373 155.655 26.9357 156.696C26.2284 157.725 25.2663 158.528 24.0495 159.105C22.8327 159.682 21.6021 159.919 20.3578 159.815C19.1077 159.7 17.9657 159.268 16.9316 158.518C15.8798 157.763 15.0568 156.759 14.4627 155.506C13.8685 154.253 13.6115 152.995 13.6915 151.732C13.7658 150.457 14.1598 149.297 14.8734 148.25C15.5751 147.209 16.5343 146.4 17.7511 145.823C18.9679 145.246 20.2073 145.012 21.4694 145.122C22.7195 145.238 23.8615 145.67 24.8956 146.419C25.924 147.156 26.7352 148.151 27.3293 149.404ZM26.1366 149.97C25.6625 148.97 25.0111 148.172 24.1826 147.576C23.342 146.986 22.4157 146.651 21.4034 146.57C20.3792 146.495 19.3731 146.692 18.3852 147.16C17.3973 147.629 16.6143 148.28 16.0363 149.115C15.4462 149.956 15.1197 150.885 15.0567 151.904C14.9816 152.928 15.1812 153.94 15.6554 154.94C16.1295 155.94 16.7898 156.741 17.636 157.343C18.4645 157.939 19.3938 158.28 20.4238 158.368C21.436 158.448 22.4361 158.254 23.4239 157.786C24.4118 157.318 25.2008 156.663 25.7909 155.822C26.3632 154.976 26.6869 154.04 26.762 153.016C26.8193 151.985 26.6108 150.97 26.1366 149.97Z" fill="#B68C6E"/>
<path d="M6.69852 131.227L20.2561 127.735L20.6202 129.149L8.30221 132.321L10.5121 140.901L22.8301 137.729L23.1942 139.143L9.63665 142.634L6.69852 131.227Z" fill="#B68C6E"/>
<path d="M17.6499 111.686L18.9275 111.607L19.5347 121.489L5.56101 122.347L4.97228 112.765L6.24987 112.687L6.74784 120.791L11.7185 120.486L11.2745 113.26L12.5321 113.182L12.9761 120.409L18.1663 120.09L17.6499 111.686Z" fill="#B68C6E"/>
<path d="M6.06137 97.2325C6.29969 95.4618 6.90929 94.1312 7.89016 93.2408C8.87103 92.3503 10.1015 92.0047 11.5815 92.2039C13.0614 92.4031 14.1567 93.0617 14.8673 94.1798C15.5646 95.2961 15.7941 96.7396 15.5558 98.5103L15.0542 102.237L19.4347 102.826L19.2373 104.293L5.36243 102.426L6.06137 97.2325ZM14.262 98.3766C14.447 97.0023 14.2911 95.9118 13.7943 95.105C13.2842 94.2964 12.4808 93.8183 11.384 93.6706C10.2608 93.5195 9.353 93.7673 8.66055 94.414C7.95488 95.059 7.50956 96.0686 7.3246 97.4429L6.8284 101.13L13.7659 102.063L14.262 98.3766Z" fill="#B68C6E"/>
<path d="M21.9915 76.0669L19.5046 83.4598L22.5138 86.2446L22.0227 87.7042L10.7939 77.1745L11.2594 75.7907L26.5693 74.1884L26.0719 75.667L21.9915 76.0669ZM20.682 76.1961L12.4831 76.9831L18.5394 82.5654L20.682 76.1961Z" fill="#B68C6E"/>
<path d="M34.1472 58.0059L38.1153 60.2527L37.4353 61.4536L34.5811 59.8375L28.5601 70.4711L16.3774 63.573L17.0968 62.3026L28.1656 68.57L32.334 61.2082L21.2652 54.9408L21.9846 53.6703L33.0534 59.9377L34.1472 58.0059Z" fill="#B68C6E"/>
<path d="M28.0659 45.2964L29.0278 44.198L37.7546 51.8402L34.9307 37.4573L35.8135 36.4493L46.3459 45.6726L45.384 46.7709L36.6723 39.1419L39.4811 53.5117L38.5983 54.5197L28.0659 45.2964Z" fill="#B68C6E"/>
<path d="M56.6334 37.3059C55.5349 38.1522 54.3496 38.6782 53.0775 38.884C51.8078 39.071 50.5899 38.9321 49.4238 38.4671C48.2683 37.994 47.2796 37.224 46.4578 36.1572C45.6359 35.0904 45.1437 33.938 44.981 32.7C44.8289 31.4538 45.0093 30.2461 45.5223 29.0767C46.0376 27.8886 46.8446 26.8714 47.9431 26.0252C49.0416 25.1789 50.2163 24.6611 51.4673 24.4716C52.7289 24.2739 53.9468 24.4129 55.121 24.8884C56.2871 25.3534 57.2811 26.1193 58.1029 27.1861C58.9247 28.2529 59.4158 29.4147 59.576 30.6714C59.7281 31.9175 59.5477 33.1253 59.0348 34.2947C58.5324 35.4559 57.7319 36.4597 56.6334 37.3059ZM55.8279 36.2602C56.7046 35.5849 57.3462 34.7792 57.7528 33.8432C58.1513 32.8966 58.2827 31.9202 58.147 30.9138C58.0032 29.897 57.5977 28.9554 56.9305 28.0893C56.2632 27.2232 55.4604 26.5962 54.522 26.2083C53.5754 25.8098 52.5978 25.6877 51.589 25.8421C50.5721 25.9859 49.6253 26.3955 48.7486 27.0709C47.872 27.7462 47.2291 28.5613 46.82 29.516C46.4134 30.452 46.2767 31.4325 46.41 32.4575C46.5457 33.4638 46.9471 34.4001 47.6144 35.2662C48.2816 36.1323 49.0885 36.7646 50.035 37.1631C50.984 37.5429 51.967 37.6609 52.9839 37.5171C54.0032 37.3546 54.9512 36.9356 55.8279 36.2602Z" fill="#B68C6E"/>
<path d="M68.6481 13.9824L69.9526 13.3268L76.2392 25.8359L74.9347 26.4915L68.6481 13.9824ZM67.1076 30.4252L65.7852 31.0898L59.4985 18.5806L60.8209 17.9161L67.1076 30.4252ZM72.159 20.6566L64.0638 24.725L63.48 23.5634L71.5752 19.495L72.159 20.6566Z" fill="#B68C6E"/>
<path d="M89.7834 7.13515L93.525 20.6259L92.1181 21.0161L90.3916 14.7911L81.9503 17.1323L83.6768 23.3573L82.2506 23.7528L78.509 10.2621L79.9351 9.86655L81.6028 15.8796L90.0442 13.5384L88.3765 7.52535L89.7834 7.13515Z" fill="#B68C6E"/>
<path d="M108.456 15.3048L100.684 15.9613L99.3244 19.8295L97.7899 19.9591L102.989 5.47008L104.444 5.34719L111.999 18.7588L110.445 18.8901L108.456 15.3048ZM107.817 14.1545L103.836 6.94401L101.121 14.7201L107.817 14.1545Z" fill="#B68C6E"/>
<path d="M127.448 6.18376L126.084 20.1172L124.631 19.9749L125.044 15.7551L120.884 15.3479C120.698 15.3297 120.434 15.2905 120.091 15.2301L116.748 19.2034L115.176 19.0494L118.783 14.8408C117.791 14.4356 117.061 13.8215 116.592 12.9986C116.125 12.1625 115.946 11.1804 116.056 10.0524C116.21 8.4866 116.82 7.32046 117.886 6.55404C118.966 5.78891 120.348 5.48883 122.033 5.6538L127.448 6.18376ZM117.533 10.1568C117.422 11.298 117.667 12.213 118.269 12.9016C118.886 13.5782 119.839 13.9796 121.126 14.1056L125.166 14.5011L125.87 7.31544L121.968 6.93356C120.668 6.80626 119.629 7.01938 118.851 7.57293C118.088 8.1145 117.649 8.9758 117.533 10.1568Z" fill="#B68C6E"/>
<path d="M158.926 16.0273L153.542 28.9507L152.194 28.3893L157.086 16.6474L148.907 13.2402L144.016 24.982L142.668 24.4206L148.052 11.4972L158.926 16.0273Z" fill="#1D1D1A"/>
<path d="M164.013 35.6327C162.857 34.8665 161.976 33.9146 161.371 32.7772C160.783 31.636 160.521 30.4385 160.585 29.1847C160.659 27.9383 161.069 26.7539 161.813 25.6315C162.557 24.5091 163.488 23.671 164.608 23.1171C165.738 22.5706 166.939 22.3512 168.211 22.4589C169.502 22.5629 170.726 22.9979 171.881 23.7642C173.037 24.5304 173.907 25.4749 174.49 26.5976C175.085 27.7277 175.347 28.9252 175.276 30.1901C175.213 31.4438 174.809 32.6319 174.065 33.7543C173.321 34.8767 172.38 35.7167 171.242 36.2743C170.112 36.8208 168.911 37.0402 167.638 36.9325C166.377 36.8322 165.168 36.3989 164.013 35.6327ZM164.742 34.5325C165.664 35.1441 166.634 35.491 167.651 35.5735C168.676 35.6448 169.642 35.4538 170.551 35.0003C171.467 34.5357 172.227 33.8478 172.831 32.9365C173.435 32.0253 173.769 31.0629 173.833 30.0495C173.905 29.025 173.704 28.0603 173.232 27.1555C172.768 26.2396 172.074 25.4759 171.152 24.8644C170.23 24.2528 169.251 23.9077 168.215 23.829C167.198 23.7466 166.226 23.9339 165.299 24.3912C164.39 24.8446 163.634 25.527 163.03 26.4383C162.425 27.3495 162.088 28.3174 162.016 29.3419C161.963 30.3627 162.169 31.3311 162.634 32.247C163.117 33.1592 163.82 33.921 164.742 34.5325Z" fill="#1D1D1A"/>
<path d="M182.926 50.3812L179.83 53.5353L178.845 52.5685L181.045 50.3278L172.324 41.7671L170.11 43.9939L169.125 43.0271L172.236 39.887L172.736 40.3774C173.43 40.9838 174.395 40.9136 175.633 40.1667C176.88 39.4104 178.438 38.1373 180.307 36.3475L183.602 33.2198L190.338 39.8329L181.427 48.91L182.926 50.3812ZM181.151 37.3721C179.609 38.8477 178.257 39.9869 177.095 40.7897C175.953 41.5922 174.999 41.9452 174.234 41.8485L180.386 47.8872L188.4 39.7236L183.619 35.0299L181.151 37.3721Z" fill="#1D1D1A"/>
<path d="M200.742 55.6105L197.876 51.611L187.536 59.0189L186.686 57.8321L197.026 50.4241L194.161 46.4246L195.201 45.6791L201.782 54.8651L200.742 55.6105Z" fill="#1D1D1A"/>
<path d="M209.611 69.9987L197.024 76.1275L196.384 74.8148L200.197 72.9587L198.367 69.2005C198.285 69.0327 198.18 68.7871 198.052 68.4637L192.917 67.6941L192.226 66.2735L197.699 67.1451C197.526 66.0878 197.667 65.1441 198.123 64.3141C198.591 63.4782 199.334 62.8122 200.353 62.3161C201.768 61.6273 203.081 61.5368 204.292 62.0445C205.509 62.5641 206.488 63.5852 207.229 65.1077L209.611 69.9987ZM201.037 63.6292C200.006 64.1312 199.355 64.819 199.083 65.6928C198.83 66.5726 198.986 67.594 199.552 68.7568L201.329 72.4071L207.821 69.2464L206.105 65.722C205.533 64.5471 204.807 63.7732 203.929 63.4002C203.068 63.0334 202.104 63.1097 201.037 63.6292Z" fill="#1D1D1A"/>
<path d="M208.576 92.4352L207.873 89.6216L201.644 91.1767L201.296 89.7796L207.524 88.2245L206.817 85.3914L199.552 82.794L199.135 81.1252L207.303 84.0334L212.805 78.0833L213.193 79.6356L208.074 85.0571L208.786 87.9096L214.879 86.3883L215.228 87.7855L209.135 89.3067L209.837 92.1203L216.909 94.5188L217.296 96.0711L209.643 93.4057L203.8 99.8116L203.384 98.1429L208.576 92.4352Z" fill="#1D1D1A"/>
<path d="M210.258 108.263L210.128 105.066L203.713 105.327L203.655 103.888L217.643 103.319L217.702 104.758L211.427 105.013L211.557 108.21L218.024 112.691L218.089 114.29L211.084 109.371L204.113 115.159L204.044 113.46L210.258 108.263Z" fill="#1D1D1A"/>
<path d="M206.04 129.659L207.103 121.932L203.627 119.758L203.837 118.232L216.834 126.481L216.635 127.928L201.893 132.359L202.106 130.814L206.04 129.659ZM207.302 129.288L215.21 126.984L208.218 122.631L207.302 129.288Z" fill="#1D1D1A"/>
<path d="M205.668 161.483L192.914 155.71L193.516 154.38L205.104 159.625L207.892 153.467L203.694 151.391C201.961 150.533 200.605 149.744 199.629 149.024C198.659 148.322 198.011 147.619 197.686 146.915C197.372 146.217 197.389 145.485 197.735 144.72C197.884 144.392 198.08 144.071 198.324 143.758L199.478 144.411C199.336 144.596 199.22 144.785 199.133 144.979C198.891 145.514 198.908 146.041 199.185 146.562C199.456 147.094 199.996 147.646 200.806 148.218C201.628 148.795 202.76 149.446 204.202 150.172L209.586 152.829L205.668 161.483Z" fill="#1D1D1A"/>
<path d="M201.059 169.184L200.211 170.372L190.771 163.63L195.003 177.663L194.224 178.754L182.832 170.617L183.68 169.429L193.104 176.159L188.888 162.138L189.667 161.047L201.059 169.184Z" fill="#1D1D1A"/>
<path d="M168.899 186.034L165.802 182.687L166.815 181.75L169.042 184.157L178.012 175.859L187.52 186.135L186.448 187.126L177.81 177.79L171.6 183.535L180.238 192.872L179.167 193.863L170.528 184.527L168.899 186.034Z" fill="#1D1D1A"/>
<path d="M157.912 195.866L164.538 191.75L163.992 187.686L165.3 186.874L167.251 202.143L166.011 202.914L153.187 194.398L154.512 193.575L157.912 195.866ZM159.004 196.6L165.827 201.215L164.713 193.054L159.004 196.6Z" fill="#1D1D1A"/>
</svg>
