<svg width="173" height="162" viewBox="0 0 173 162" fill="none" xmlns="http://www.w3.org/2000/svg">
<path d="M156.753 41.7846C132.677 7.17479 40.8861 25.2324 22.8287 65.861C4.77129 106.49 31.857 140.568 76.9999 141.099C122.143 141.63 180.829 76.3944 156.753 41.7846Z" stroke="#B68C6E"/>
<path opacity="0.2" fill-rule="evenodd" clip-rule="evenodd" d="M106.623 139.884C131.641 131.337 152.786 112.998 154.951 88.8841C157.131 64.6036 150.063 44.1139 136.057 31.2973C122.059 18.4877 101.047 13.2668 75.1722 19.686C49.3668 26.0881 31.0734 46.7141 23.4944 69.5225C15.912 92.3409 19.0892 117.209 36.0287 132.146C52.9768 147.09 81.603 148.431 106.623 139.884ZM106.946 140.83C81.7543 149.436 52.6954 148.175 35.3673 132.896C18.0306 117.609 14.8827 92.2673 22.5454 69.2071C30.2114 46.1369 48.7331 25.215 74.9314 18.7155C101.06 12.2332 122.438 17.4786 136.732 30.5596C151.02 43.6336 158.148 64.4587 155.947 88.9735C153.731 113.655 132.139 132.224 106.946 140.83Z" fill="#B68C6E"/>
</svg>
