<svg width="40" height="40" viewBox="0 0 40 40" fill="none" xmlns="http://www.w3.org/2000/svg">
<rect x="0.5" y="0.5" width="39" height="39" stroke="white"/>
<path fill-rule="evenodd" clip-rule="evenodd" d="M25.518 32.4812H14.7494C12.8454 32.4812 11.0194 31.7249 9.67301 30.3788C8.32667 29.0326 7.57031 27.2068 7.57031 25.303V14.1768C7.57031 12.273 8.32667 10.4472 9.67301 9.10099C11.0194 7.75481 12.8454 6.99854 14.7494 6.99854H25.518C27.4221 6.99854 29.2481 7.75481 30.5944 9.10099C31.9408 10.4472 32.6971 12.273 32.6971 14.1768V25.303C32.6971 27.2068 31.9408 29.0326 30.5944 30.3788C29.2481 31.7249 27.4221 32.4812 25.518 32.4812ZM30.3639 13.6384C30.3639 12.4485 29.8912 11.3074 29.0497 10.466C28.2083 9.62467 27.067 9.152 25.877 9.152H14.211C13.021 9.152 11.8797 9.62467 11.0382 10.466C10.1968 11.3074 9.72404 12.4485 9.72404 13.6384V25.303C9.72404 26.4929 10.1968 27.634 11.0382 28.4753C11.8797 29.3167 13.021 29.7894 14.211 29.7894H25.877C27.067 29.7894 28.2083 29.3167 29.0497 28.4753C29.8912 27.634 30.3639 26.4929 30.3639 25.303V13.6384ZM26.7744 14.3562C26.4549 14.3562 26.1426 14.2615 25.877 14.084C25.6113 13.9065 25.4043 13.6543 25.282 13.3592C25.1598 13.0641 25.1278 12.7393 25.1901 12.426C25.2525 12.1127 25.4063 11.8249 25.6322 11.5991C25.8581 11.3732 26.1459 11.2194 26.4592 11.157C26.7726 11.0947 27.0974 11.1267 27.3925 11.249C27.6877 11.3712 27.94 11.5782 28.1175 11.8438C28.295 12.1094 28.3897 12.4217 28.3897 12.7411C28.3897 13.1695 28.2195 13.5803 27.9166 13.8832C27.6137 14.186 27.2028 14.3562 26.7744 14.3562ZM20.044 26.2003C18.7483 26.2003 17.4818 25.8161 16.4045 25.0964C15.3272 24.3766 14.4876 23.3536 13.9917 22.1568C13.4959 20.9599 13.3662 19.6429 13.6189 18.3723C13.8717 17.1017 14.4956 15.9346 15.4118 15.0185C16.3279 14.1025 17.4952 13.4786 18.766 13.2259C20.0367 12.9731 21.3539 13.1029 22.5509 13.5986C23.7479 14.0944 24.7711 14.9339 25.4909 16.0111C26.2107 17.0883 26.5949 18.3547 26.5949 19.6501C26.5949 21.3873 25.9047 23.0534 24.6762 24.2818C23.4477 25.5102 21.7814 26.2003 20.044 26.2003ZM20.044 15.4329C19.2098 15.4329 18.3943 15.6803 17.7007 16.1437C17.0071 16.6071 16.4666 17.2657 16.1473 18.0363C15.8281 18.8069 15.7446 19.6548 15.9073 20.4729C16.0701 21.2909 16.4717 22.0424 17.0616 22.6322C17.6515 23.2219 18.403 23.6236 19.2212 23.7863C20.0393 23.949 20.8873 23.8655 21.658 23.5463C22.4287 23.2271 23.0874 22.6866 23.5509 21.9931C24.0143 21.2996 24.2617 20.4842 24.2617 19.6501C24.2617 18.5317 23.8173 17.459 23.0264 16.6681C22.2354 15.8773 21.1626 15.4329 20.044 15.4329Z" fill="white"/>
</svg>
