<svg width="40" height="40" viewBox="0 0 40 40" fill="none" xmlns="http://www.w3.org/2000/svg">
<rect x="0.5" y="0.5" width="39" height="39" stroke="white"/>
<path fill-rule="evenodd" clip-rule="evenodd" d="M27.7236 26.9H27.5418C26.3023 26.7069 25.5357 25.878 24.8156 25.1054C24.4028 24.6712 23.7384 23.553 22.9981 23.6698C21.9454 23.8338 22.5326 25.6205 22.0893 26.3616C21.7378 26.9538 20.219 26.8282 19.1814 26.7205C15.8917 26.3871 14.1073 24.7612 12.6384 22.952C11.0608 21.0216 9.92505 18.9047 8.82165 16.671C8.45815 15.939 7.9129 15.2264 7.9129 14.3381C8.44779 13.9239 9.39579 13.9792 10.2756 13.9792C11.0157 13.9792 12.0931 13.8949 12.6384 14.1587C12.9614 14.3177 13.2856 15.2386 13.5471 15.7738C14.0575 16.8433 14.6658 17.8644 15.3646 18.8245C15.6823 19.2552 16.2532 20.0118 16.8186 19.9012C17.3742 19.7954 17.3401 18.5799 17.3639 17.7478C17.3928 16.8015 17.4676 15.5602 17.1821 15.0559C16.9171 14.5833 16.4022 14.6209 15.9099 14.3381C16.3177 13.5485 17.4547 13.4408 18.8179 13.4408C19.9607 13.4408 21.4561 13.2614 21.9076 13.9792C22.356 14.7195 22.1233 16.2161 22.0893 17.2094C22.0554 18.3249 21.8329 19.3839 22.6346 19.9012C23.2547 19.8377 23.5504 19.2731 23.9068 18.8245C24.6965 17.8393 25.2965 17.0389 25.9061 15.7738C26.154 15.2456 26.3632 14.3261 26.8148 14.1587C27.5044 13.9132 28.5325 13.9792 29.5411 13.9792C30.3733 13.9792 31.8216 13.794 32.0855 14.3381C32.2995 14.7726 31.7402 15.9981 31.5403 16.3121C30.773 17.5069 30.0027 18.324 29.1776 19.3629C28.8446 19.7828 28.2245 20.3161 28.2688 20.978C28.2979 21.4887 28.7683 21.8763 29.1776 22.2342C29.971 22.9485 30.7007 23.729 31.3586 24.5671C31.6283 24.8969 32.3269 25.5749 32.2673 26.0027C32.0992 27.3389 27.7257 26.8873 27.7236 26.9Z" fill="white"/>
</svg>
