<svg width="721" height="1429" viewBox="0 0 721 1429" fill="none" xmlns="http://www.w3.org/2000/svg">
<path opacity="0.4" d="M286.101 1428C305.881 1303.73 202.551 1220.31 114.808 1181.72M114.808 1181.72C50.4799 1153.43 -5.471 1149.23 1.60602 1170.69C11.3142 1200.13 54.7093 1230.34 114.808 1181.72ZM114.808 1181.72C158.276 1146.56 210.482 1070.17 265.001 922.425C317.492 780.179 408.775 714.393 495.867 691.01M513.012 1C593.371 50.559 555.447 144.638 505.868 199.136M505.868 199.136C472.805 235.479 434.559 254.221 422.751 230.419C409.063 202.828 454.384 191.206 505.868 199.136ZM505.868 199.136C565.4 208.306 633.172 243.617 627.479 310.61C616.861 435.538 524.305 482.59 460.749 579.85C438.001 614.663 458.299 655.743 495.867 691.01M495.867 691.01C563.258 754.271 686.22 798.828 715.983 754.961C743.605 714.247 624.293 656.529 495.867 691.01Z" stroke="white" stroke-width="2"/>
</svg>
