<svg width="355" height="1029" viewBox="0 0 355 1029" fill="none" xmlns="http://www.w3.org/2000/svg">
<path opacity="0.3" d="M167.639 236.482C138.991 282.427 105.851 306.119 95.6197 276.029C83.7596 241.149 123.03 226.457 167.639 236.482ZM167.639 236.482C219.223 248.074 277.946 292.714 273.013 377.406C263.813 535.339 183.614 594.821 128.545 717.776C108.834 761.787 126.421 813.72 158.974 858.304M167.639 236.482C207.377 172.752 238.474 66.2089 187.804 1M158.974 858.304C217.366 938.278 323.911 994.607 349.7 939.15C373.634 887.681 270.252 814.713 158.974 858.304ZM158.974 858.304C103.309 880.109 45.6685 931.081 1 1028.5" stroke="#EAD8CD" stroke-width="2"/>
</svg>
